<svg width="20" height="19" viewBox="0 0 20 19" fill="none" xmlns="http://www.w3.org/2000/svg">
<path fill-rule="evenodd" clip-rule="evenodd" d="M5.25 0C4.97386 0 4.75 0.223858 4.75 0.5V2H2C0.895431 2 0 2.89543 0 4V17C0 18.1046 0.895431 19 2 19H18C19.1046 19 20 18.1046 20 17V4C20 2.89543 19.1046 2 18 2H15.25V0.5C15.25 0.223858 15.0261 0 14.75 0H13.25C12.9739 0 12.75 0.223858 12.75 0.5V2H7.25V0.5C7.25 0.223858 7.02614 0 6.75 0H5.25ZM3 9C2.44772 9 2 9.44772 2 10V16C2 16.5523 2.44772 17 3 17H17C17.5523 17 18 16.5523 18 16V10C18 9.44772 17.5523 9 17 9H3ZM4.5 11C4.22386 11 4 11.2239 4 11.5V13C4 13.2761 4.22386 13.5 4.5 13.5H6C6.27614 13.5 6.5 13.2761 6.5 13V11.5C6.5 11.2239 6.27614 11 6 11H4.5ZM8.75 11.5C8.75 11.2239 8.97386 11 9.25 11H10.75C11.0261 11 11.25 11.2239 11.25 11.5V13C11.25 13.2761 11.0261 13.5 10.75 13.5H9.25C8.97386 13.5 8.75 13.2761 8.75 13V11.5ZM14 11C13.7239 11 13.5 11.2239 13.5 11.5V13C13.5 13.2761 13.7239 13.5 14 13.5H15.5C15.7761 13.5 16 13.2761 16 13V11.5C16 11.2239 15.7761 11 15.5 11H14Z" fill="#B3B3BC"/>
</svg>
