<svg width="28" height="14" viewBox="0 0 28 14" fill="none" xmlns="http://www.w3.org/2000/svg">
<path fill-rule="evenodd" clip-rule="evenodd" d="M1.85379 0.479156C1.56613 0.00769919 0.95075 -0.141299 0.479293 0.146359C0.00783652 0.434017 -0.141162 1.0494 0.146497 1.52086C0.263763 1.71305 0.694648 2.24721 1.33234 2.90553C1.99631 3.59096 2.93997 4.46884 4.12612 5.34362C4.36456 5.51947 4.61342 5.69564 4.87236 5.87042L2.70714 8.03564C2.31662 8.42616 2.31662 9.05933 2.70714 9.44985C3.09767 9.84038 3.73083 9.84038 4.12136 9.44985L6.63401 6.9372C8.43952 7.90894 10.5856 8.69985 13.0001 8.93593V12.5001C13.0001 13.0524 13.4478 13.5001 14.0001 13.5001C14.5524 13.5001 15.0001 13.0524 15.0001 12.5001V8.94647C16.6183 8.79133 19.2423 8.258 21.9143 6.8285L24.5357 9.44983C24.9262 9.84035 25.5593 9.84035 25.9499 9.44983C26.3404 9.0593 26.3404 8.42614 25.9499 8.03561L23.6682 5.75391C25.163 4.7107 26.6063 3.34547 27.8253 1.56493C28.1373 1.10922 28.0208 0.486863 27.5651 0.174864C27.1094 -0.137135 26.487 -0.0206312 26.175 0.435083C22.3341 6.04514 15.8792 6.99442 14.0166 6.99998C10.4786 6.87611 7.48234 5.33374 5.3132 3.73401C4.23119 2.93603 3.37012 2.13468 2.76888 1.51399C2.21213 0.939236 1.91729 0.56044 1.86291 0.490587C1.856 0.481708 1.85298 0.477821 1.85379 0.479156Z" fill="#B3B3BC"/>
</svg>
