<svg width="19" height="18" viewBox="0 0 19 18" fill="" xmlns="http://www.w3.org/2000/svg">
<path fill-rule="evenodd" clip-rule="evenodd" d="M9.5 18C14.4706 18 18.5 13.9706 18.5 9C18.5 4.02944 14.4706 0 9.5 0C4.52944 0 0.5 4.02944 0.5 9C0.5 13.9706 4.52944 18 9.5 18ZM10.5078 5.87818C10.5078 6.15432 10.284 6.37818 10.0078 6.37818H8.9924C8.71626 6.37818 8.4924 6.15432 8.4924 5.87818V5.18726C8.4924 4.91111 8.71626 4.68726 8.9924 4.68726L10.0078 4.68725C10.284 4.68725 10.5078 4.91111 10.5078 5.18725V5.87818ZM10.4598 12.8128C10.4598 13.089 10.2359 13.3128 9.95976 13.3128H9.02883C8.75269 13.3128 8.52883 13.089 8.52883 12.8128L8.52883 8.4367C8.52883 8.16055 8.75268 7.93669 9.02883 7.93669H9.95976C10.2359 7.93669 10.4598 8.16055 10.4598 8.43669L10.4598 12.8128Z" fill=""/>
</svg>
